<svg xmlns="http://www.w3.org/2000/svg" width="23" height="23" viewBox="0 0 23 23">
<defs>
    <style>
      .cls-1 {
        fill-rule: evenodd;
      }
    </style>
  </defs>
  <path id="Forma_1" data-name="Forma 1" class="cls-1" d="M22.657,20.771H21.979V19.707a0.342,0.342,0,0,0-.342-0.341H20.96V18.184a0.342,0.342,0,0,0-.342-0.341H20.193v-9.2h0.425A0.341,0.341,0,0,0,20.96,8.3V7.116h1.7a0.341,0.341,0,0,0,.171-0.637l-3.159-1.83a0.341,0.341,0,1,0-.343.591l2.06,1.194H15.827a0.341,0.341,0,1,0,0,.683h0.078V8.3a0.341,0.341,0,0,0,.342.341h0.425v9.2H16.247a0.341,0.341,0,0,0-.342.341v1.182H14.027V18.184a0.341,0.341,0,0,0-.342-0.341H13.26V10.027a0.342,0.342,0,0,0-.683,0v7.815H10.422V10.027a0.342,0.342,0,0,0-.683,0v7.815H9.313a0.341,0.341,0,0,0-.342.341v1.182H7.093V18.184a0.341,0.341,0,0,0-.342-0.341H6.327v-9.2H6.752A0.341,0.341,0,0,0,7.093,8.3V7.116H7.129a0.341,0.341,0,1,0,0-.683H1.612L11.5,0.7l6.934,4.017a0.341,0.341,0,1,0,.343-0.591l-7.1-4.117a0.342,0.342,0,0,0-.343,0L0.171,6.479a0.341,0.341,0,0,0,.171.637h1.7V8.3a0.341,0.341,0,0,0,.342.341H2.805v9.2H2.38a0.341,0.341,0,0,0-.342.341v1.182H1.361a0.341,0.341,0,0,0-.342.341v1.064H0.342A0.341,0.341,0,0,0,0,21.112v1.547A0.341,0.341,0,0,0,.342,23H22.657A0.341,0.341,0,0,0,23,22.659V21.112A0.341,0.341,0,0,0,22.657,20.771ZM16.588,7.956V7.116h3.689v0.84H16.588ZM19.51,8.639v9.2H17.355v-9.2H19.51Zm-2.922,9.886h3.689v0.84H16.588v-0.84Zm-6.933,0h3.689v0.84H9.655v-0.84h0ZM2.722,7.956V7.116H6.41v0.84H2.722ZM5.644,8.639v9.2H3.488v-9.2H5.644ZM2.722,18.525H6.41v0.84H2.722v-0.84ZM0.683,22.317V21.453H5.012a0.341,0.341,0,1,0,0-.683H1.7V20.048H21.3v0.723H6.15a0.341,0.341,0,1,0,0,.683H22.315v0.864H0.683ZM11.841,5.564V4.413a0.607,0.607,0,0,1,.434.526,0.342,0.342,0,0,0,.683,0A1.323,1.323,0,0,0,11.841,3.7V3.636a0.342,0.342,0,0,0-.683,0V3.7A1.324,1.324,0,0,0,10.04,4.939a1.324,1.324,0,0,0,1.117,1.236V7.326A0.607,0.607,0,0,1,10.723,6.8a0.342,0.342,0,0,0-.683,0,1.323,1.323,0,0,0,1.117,1.237V8.1a0.342,0.342,0,0,0,.683,0V8.037A1.324,1.324,0,0,0,12.958,6.8,1.324,1.324,0,0,0,11.841,5.564Zm-0.683-.1a0.607,0.607,0,0,1-.434-0.526,0.607,0.607,0,0,1,.434-0.526V5.465Zm0.683,1.861V6.274a0.607,0.607,0,0,1,.434.526A0.607,0.607,0,0,1,11.841,7.326ZM11.5,2.144a3.725,3.725,0,1,0,3.727,3.725A3.73,3.73,0,0,0,11.5,2.144Zm0,6.768a3.042,3.042,0,1,1,3.044-3.042A3.047,3.047,0,0,1,11.5,8.912Z"/>
</svg>
