<svg xmlns="http://www.w3.org/2000/svg" width="23" height="23" viewBox="0 0 23 23">
<defs>
    <style>
      .cls-1 {
        fill-rule: evenodd;
      }
    </style>
  </defs>
  <path id="Forma_1" data-name="Forma 1" class="cls-1" d="M19.708,4H2.292A2.321,2.321,0,0,0,0,6.344V16.656A2.321,2.321,0,0,0,2.292,19H19.708A2.321,2.321,0,0,0,22,16.656V6.344A2.321,2.321,0,0,0,19.708,4Zm1.375,12.656a1.393,1.393,0,0,1-1.375,1.406H2.292A1.393,1.393,0,0,1,.917,16.656V6.344A1.393,1.393,0,0,1,2.292,4.937H19.708a1.393,1.393,0,0,1,1.375,1.406V16.656h0Zm0.458-9.844H0.458A0.464,0.464,0,0,0,0,7.281v2.812a0.464,0.464,0,0,0,.458.469H21.542A0.464,0.464,0,0,0,22,10.094V7.281A0.464,0.464,0,0,0,21.542,6.812ZM21.083,9.625H0.917V7.75H21.083V9.625h0ZM8.708,13.375h-5.5a0.469,0.469,0,0,0,0,.938h5.5A0.469,0.469,0,0,0,8.708,13.375Zm0,1.875h-5.5a0.469,0.469,0,0,0,0,.938h5.5A0.469,0.469,0,0,0,8.708,15.25Zm9.167-2.812H16.958a1.393,1.393,0,0,0-1.375,1.406v0.938a1.393,1.393,0,0,0,1.375,1.406h0.917a1.393,1.393,0,0,0,1.375-1.406V13.844A1.393,1.393,0,0,0,17.875,12.438Zm0.458,2.344a0.464,0.464,0,0,1-.458.469H16.958a0.464,0.464,0,0,1-.458-0.469V13.844a0.464,0.464,0,0,1,.458-0.469h0.917a0.464,0.464,0,0,1,.458.469v0.938Z"/>
</svg>
