<?xml version="1.0" encoding="UTF-8" ?>
<!DOCTYPE svg PUBLIC "-//W3C//DTD SVG 1.1//EN" "http://www.w3.org/Graphics/SVG/1.1/DTD/svg11.dtd">
<svg width="291pt" height="291pt" viewBox="0 0 291 291" version="1.1" xmlns="http://www.w3.org/2000/svg">
<g id="#ffffffff">
</g>
<g id="#000000ff">
<path fill="#000000" opacity="1.00" d=" M 142.38 12.39 C 145.79 9.65 151.21 12.68 151.21 16.92 C 151.26 28.34 151.27 39.76 151.20 51.17 C 151.00 54.26 148.13 56.94 144.97 56.43 C 141.76 56.39 139.55 53.10 139.75 50.08 C 139.77 39.35 139.77 28.63 139.75 17.91 C 139.77 15.83 140.43 13.47 142.38 12.39 Z" />
<path fill="#000000" opacity="1.00" d=" M 92.47 45.65 C 94.89 44.07 98.33 44.57 100.17 46.80 C 104.44 51.21 108.94 55.41 113.17 59.87 C 115.72 62.08 115.40 66.69 112.56 68.52 C 110.46 70.27 107.13 69.86 105.29 67.93 C 100.71 63.42 96.14 58.91 91.66 54.30 C 89.21 52.02 89.64 47.43 92.47 45.65 Z" />
<path fill="#000000" opacity="1.00" d=" M 193.12 45.19 C 197.90 42.81 203.07 48.76 200.26 53.18 C 196.32 57.90 191.62 61.94 187.39 66.40 C 185.43 68.40 183.20 71.10 180.04 70.45 C 175.99 70.06 173.64 64.62 176.35 61.50 C 180.88 56.66 185.72 52.12 190.32 47.36 C 191.17 46.54 191.95 45.56 193.12 45.19 Z" />
<path fill="#000000" opacity="1.00" d=" M 139.33 97.46 C 142.04 95.96 145.11 97.55 147.98 96.82 C 152.08 96.32 155.03 99.73 157.60 102.39 C 170.82 115.61 183.98 128.88 197.27 142.01 C 197.32 136.34 197.03 130.41 199.37 125.09 C 203.92 113.03 217.32 105.19 230.05 107.17 C 240.50 108.37 249.77 115.94 253.35 125.79 C 255.71 131.58 254.92 137.98 255.03 144.08 C 255.23 150.32 252.98 156.46 249.21 161.39 C 257.51 161.03 266.12 162.40 273.23 166.93 C 283.42 173.21 290.34 184.52 291.00 196.51 L 291.00 274.75 C 290.52 277.52 287.99 279.90 285.08 279.64 C 255.06 279.65 225.04 279.66 195.01 279.65 C 191.85 280.02 188.64 277.28 188.74 274.06 C 188.70 251.38 188.75 228.70 188.71 206.03 C 188.80 204.72 187.63 203.83 187.07 202.78 C 177.11 188.05 167.21 173.27 157.26 158.53 C 152.94 152.16 148.46 145.79 145.56 138.60 C 140.68 149.77 132.93 159.30 126.40 169.51 C 118.34 181.36 110.46 193.32 102.33 205.12 C 102.22 208.22 103.03 211.99 100.17 214.15 C 96.96 217.19 91.00 214.54 91.06 210.12 C 91.16 206.57 90.13 202.45 92.52 199.43 C 103.16 183.77 113.63 168.01 124.27 152.36 C 127.70 147.09 131.48 142.01 134.07 136.25 C 137.56 128.71 139.53 120.45 139.71 112.13 C 120.21 131.83 100.50 151.34 80.95 170.99 C 79.63 172.14 77.91 173.00 76.13 172.99 C 62.75 173.03 49.37 172.96 35.99 173.02 C 22.87 172.96 11.39 185.06 11.40 198.05 C 11.38 221.48 11.35 244.92 11.42 268.35 C 16.65 268.33 21.88 268.36 27.11 268.34 C 27.15 246.88 27.09 225.42 27.14 203.96 C 27.13 201.31 28.94 198.57 31.63 198.04 C 35.22 196.93 38.99 200.30 38.67 203.98 C 38.72 225.43 38.66 246.88 38.70 268.34 C 56.12 268.36 73.55 268.33 90.97 268.35 C 91.29 263.02 90.42 257.57 91.47 252.32 C 93.34 247.22 101.99 248.51 102.25 253.94 C 102.38 260.65 102.30 267.36 102.29 274.07 C 102.42 276.51 100.49 278.56 98.35 279.44 C 96.25 279.81 94.11 279.62 91.99 279.66 C 63.31 279.65 34.64 279.66 5.97 279.64 C 2.99 279.92 0.44 277.43 0.00 274.59 L 0.00 196.39 C 0.72 185.61 6.33 175.29 15.02 168.86 C 22.57 162.96 32.40 160.90 41.82 161.39 C 34.90 153.14 35.65 141.88 36.19 131.84 C 37.47 120.94 45.78 111.34 56.26 108.19 C 69.89 103.62 86.07 111.09 91.40 124.45 C 93.97 129.93 93.75 136.11 93.75 142.01 C 106.74 129.23 119.53 116.25 132.45 103.41 C 134.65 101.34 136.51 98.72 139.33 97.46 M 151.31 112.08 C 151.44 125.85 157.05 138.93 165.11 149.88 C 176.43 166.61 187.66 183.40 198.98 200.12 C 199.83 201.21 199.97 202.64 199.99 203.97 C 200.03 225.43 199.95 246.89 200.04 268.35 C 217.47 268.33 234.90 268.35 252.34 268.34 C 252.39 254.25 252.31 240.16 252.38 226.07 C 252.47 223.19 254.95 220.41 257.95 220.57 C 261.42 220.29 263.98 223.71 263.94 226.93 C 263.94 240.73 263.93 254.54 263.94 268.34 C 269.16 268.36 274.38 268.33 279.61 268.35 C 279.69 244.90 279.65 221.44 279.63 197.98 C 279.59 185.04 268.17 172.95 255.07 173.03 C 241.70 172.96 228.33 173.03 214.96 173.00 C 213.30 173.10 211.81 172.20 210.46 171.36 C 190.78 151.57 170.91 131.96 151.31 112.08 M 61.51 118.57 C 53.33 119.92 47.01 127.82 47.16 136.05 C 47.36 140.39 46.56 144.89 48.04 149.08 C 50.08 156.00 56.83 161.22 64.06 161.40 C 71.12 161.86 78.12 157.39 80.89 150.91 C 83.26 145.96 82.12 140.32 82.34 135.03 C 82.31 124.74 71.51 116.16 61.51 118.57 M 222.53 118.68 C 217.03 119.73 212.21 123.74 210.08 128.91 C 207.80 133.60 208.96 138.97 208.69 143.99 C 208.30 154.74 219.67 163.76 230.08 161.01 C 237.87 159.36 243.84 151.94 243.85 143.99 C 243.68 139.15 244.50 134.09 242.62 129.47 C 239.71 121.70 230.65 116.49 222.53 118.68 Z" />
<path fill="#000000" opacity="1.00" d=" M 256.65 198.06 C 261.00 196.58 265.79 202.16 263.04 206.10 C 261.38 210.14 254.53 210.07 252.98 205.95 C 251.26 202.97 253.33 198.73 256.65 198.06 Z" />
<path fill="#000000" opacity="1.00" d=" M 95.15 228.21 C 99.54 226.65 103.96 231.86 101.83 235.90 C 100.47 238.93 96.34 240.44 93.56 238.34 C 89.52 236.14 90.53 228.97 95.15 228.21 Z" />
</g>
</svg>
