<?xml version="1.0" encoding="UTF-8"?>
<!DOCTYPE svg PUBLIC "-//W3C//DTD SVG 1.1//EN" "http://www.w3.org/Graphics/SVG/1.1/DTD/svg11.dtd">
<!-- Creator: CorelDRAW X8 -->
<svg xmlns="http://www.w3.org/2000/svg" xml:space="preserve" width="480px" height="450px" version="1.1" style="shape-rendering:geometricPrecision; text-rendering:geometricPrecision; image-rendering:optimizeQuality; fill-rule:evenodd; clip-rule:evenodd"
     viewBox="0 0 4800000 4499999"
     xmlns:xlink="http://www.w3.org/1999/xlink">
 <defs>
  <style type="text/css">
   <![CDATA[
    .fil0 {fill:#B56252}
   ]]>
  </style>
 </defs>
 <g id="Layer_x0020_1">
  <metadata id="CorelCorpID_0Corel-Layer"/>
  <g id="_1109438128">
   <path class="fil0" d="M3861220 2703001c-252958,0 -476010,122033 -620212,308010l-1523452 -585948c1535,-20008 6023,-39177 6023,-59563 0,-37855 -5988,-74103 -11173,-110528l1561130 -720606c144426,163347 353057,268596 587672,268596 434211,0 787551,-353341 787551,-787551 0,-434211 -353340,-787552 -787551,-787552 -434211,0 -787539,353341 -787539,787540 0,37866 5988,74102 11173,110528l-1561130 720606c-144426,-163348 -353057,-268596 -587672,-268596 -434211,0 -787551,353340 -787551,787551 0,434211 353340,787551 787551,787551 252958,0 476010,-122020 620200,-307997l1523464 585947c-1535,20008 -6024,39166 -6024,59564 0,434210 353341,787551 787552,787551 434199,0 787551,-353352 787551,-787551 -12,-434199 -353352,-787552 -787563,-787552z"/>
  </g>
 </g>
</svg>
