<svg xmlns="http://www.w3.org/2000/svg" width="14" height="9" viewBox="0 0 14 9">
  <metadata><?xpacket begin="﻿" id="W5M0MpCehiHzreSzNTczkc9d"?>
<x:xmpmeta xmlns:x="adobe:ns:meta/" x:xmptk="Adobe XMP Core 5.6-c138 79.159824, 2016/09/14-01:09:01        ">
   <rdf:RDF xmlns:rdf="http://www.w3.org/1999/02/22-rdf-syntax-ns#">
      <rdf:Description rdf:about=""/>
   </rdf:RDF>
</x:xmpmeta>
                                                                                                    
                                                                                                    
                                                                                                    
                                                                                                    
                                                                                                    
                                                                                                    
                                                                                                    
                                                                                                    
                                                                                                    
                                                                                                    
                                                                                                    
                                                                                                    
                                                                                                    
                                                                                                    
                                                                                                    
                                                                                                    
                                                                                                    
                                                                                                    
                                                                                                    
                                                                                                    
                           
<?xpacket end="w"?></metadata>
<defs>
    <style>
      .cls-1 {
        fill: #203346;
        fill-rule: evenodd;
      }
    </style>
  </defs>
  <path id="_copy_3" data-name=" copy 3" class="cls-1" d="M6.739,8.443a0.645,0.645,0,0,0,.995,0L13.41,2.759a0.678,0.678,0,0,0,.2-0.5,0.678,0.678,0,0,0-.2-0.5l-0.644-.645a0.731,0.731,0,0,0-.5-0.22,0.629,0.629,0,0,0-.5.19L7.236,5.63,2.7,1.089A0.629,0.629,0,0,0,2.2.9a0.731,0.731,0,0,0-.5.22l-0.644.645a0.679,0.679,0,0,0-.2.5,0.679,0.679,0,0,0,.2.5Z"/>
</svg>
