<?xml version="1.0" encoding="utf-8"?>
<!-- Generator: Adobe Illustrator 21.1.0, SVG Export Plug-In . SVG Version: 6.00 Build 0)  -->
<svg version="1.1" id="Layer_1" xmlns="http://www.w3.org/2000/svg" xmlns:xlink="http://www.w3.org/1999/xlink" x="0px" y="0px"
	 viewBox="0 0 43.6 40.6" style="enable-background:new 0 0 43.6 40.6;" xml:space="preserve">
<style type="text/css">
	.st0{fill:#181818;}
</style>
<title>filter</title>
<g>
	<path class="st0" d="M20.1,4.5C19,1.1,15.4-0.8,12,0.3C10,1,8.4,2.5,7.8,4.5H2.2C1,4.5,0,5.5,0,6.7c0,1.2,1,2.2,2.2,2.2H8
		c1.3,3.3,5.1,5,8.4,3.7c1.7-0.7,3-2,3.7-3.7c0.3-0.8,0.5-1.6,0.5-2.4C20.5,5.8,20.4,5.2,20.1,4.5z M14,10c-1.9,0-3.5-1.6-3.5-3.5
		c0-0.7,0.2-1.4,0.6-2c1.1-1.6,3.3-2,4.8-0.9c0.3,0.2,0.6,0.5,0.9,0.9c0.4,0.6,0.6,1.3,0.6,2C17.4,8.4,15.9,10,14,10L14,10z"/>
	<path class="st0" d="M43.6,6.7c0,1.2-1,2.2-2.2,2.2l0,0H20c0.3-0.8,0.5-1.6,0.5-2.4c0-0.7-0.1-1.4-0.3-2h21.3
		C42.6,4.5,43.6,5.4,43.6,6.7C43.6,6.7,43.6,6.7,43.6,6.7z"/>
	<path class="st0" d="M15.3,36.3h13.1c1.2,0,2.2,1,2.2,2.2v0c0,1.2-1,2.2-2.2,2.2H15.3c-1.2,0-2.2-1-2.2-2.2v0
		C13.1,37.3,14.1,36.3,15.3,36.3z"/>
	<path class="st0" d="M32.7,20.4h-1.6c-1.2-3.4-4.9-5.2-8.2-4c-1.9,0.6-3.4,2.1-4,4h-7.9c-0.6,0-1.1,0.2-1.5,0.6
		c-0.4,0.4-0.6,1-0.6,1.5c0,1.2,1,2.2,2.2,2.2h8c1.2,3.4,5,5.1,8.3,3.8c1.8-0.7,3.2-2.1,3.8-3.8h1.6c0.6,0,1.1-0.2,1.5-0.6
		c0.4-0.4,0.6-1,0.6-1.5C34.9,21.4,33.9,20.4,32.7,20.4C32.7,20.4,32.7,20.4,32.7,20.4z M25,26c-1.9,0-3.5-1.6-3.5-3.5
		c0-0.8,0.3-1.5,0.7-2.1c1.1-1.5,3.3-1.9,4.9-0.7c0.3,0.2,0.5,0.4,0.7,0.7c0.5,0.6,0.7,1.3,0.7,2.1C28.4,24.4,26.9,26,25,26L25,26z"
		/>
</g>
</svg>
