<svg xmlns="http://www.w3.org/2000/svg" width="22" height="22" viewBox="0 0 22 22">
  <metadata><?xpacket begin="﻿" id="W5M0MpCehiHzreSzNTczkc9d"?>
<x:xmpmeta xmlns:x="adobe:ns:meta/" x:xmptk="Adobe XMP Core 5.6-c138 79.159824, 2016/09/14-01:09:01        ">
   <rdf:RDF xmlns:rdf="http://www.w3.org/1999/02/22-rdf-syntax-ns#">
      <rdf:Description rdf:about=""/>
   </rdf:RDF>
</x:xmpmeta>
                                                                                                    
                                                                                                    
                                                                                                    
                                                                                                    
                                                                                                    
                                                                                                    
                                                                                                    
                                                                                                    
                                                                                                    
                                                                                                    
                                                                                                    
                                                                                                    
                                                                                                    
                                                                                                    
                                                                                                    
                                                                                                    
                                                                                                    
                                                                                                    
                                                                                                    
                                                                                                    
                           
<?xpacket end="w"?></metadata>
<defs>
    <style>
      .cls-1 {
        fill: #aa2d6a;
      }

      .cls-1, .cls-2 {
        fill-rule: evenodd;
      }

      .cls-2 {
        fill: #76277e;
      }
    </style>
  </defs>
  <path class="cls-1" d="M16.406,22l-0.075,0a1.006,1.006,0,0,1-.877-0.751,6.811,6.811,0,0,0-2.078-2.874,1.091,1.091,0,0,1-.208-1.468,0.956,0.956,0,0,1,1.387-.22A9.676,9.676,0,0,1,15.709,17.8a9.338,9.338,0,0,1,.72.919c0.145-.253.305-0.521,0.479-0.8a10.4,10.4,0,0,1,3.665-3.814,0.968,0.968,0,0,1,1.327.482,1.078,1.078,0,0,1-.456,1.4,8.61,8.61,0,0,0-2.87,3.069A19.993,19.993,0,0,0,17.3,21.394,0.99,0.99,0,0,1,16.406,22Z"/>
  <path id="Forma_1" data-name="Forma 1" class="cls-2" d="M10.978,0A6.36,6.36,0,0,0,7.387,11.6,11.013,11.013,0,0,0,0,22H1.715a9.283,9.283,0,0,1,9.263-9.281A6.359,6.359,0,0,0,10.978,0Zm0,11A4.641,4.641,0,1,1,15.61,6.359,4.641,4.641,0,0,1,10.978,11Z"/>
</svg>
