<svg xmlns="http://www.w3.org/2000/svg" width="21" height="15" viewBox="0 0 21 15">
  <metadata><?xpacket begin="﻿" id="W5M0MpCehiHzreSzNTczkc9d"?>
<x:xmpmeta xmlns:x="adobe:ns:meta/" x:xmptk="Adobe XMP Core 5.6-c138 79.159824, 2016/09/14-01:09:01        ">
   <rdf:RDF xmlns:rdf="http://www.w3.org/1999/02/22-rdf-syntax-ns#">
      <rdf:Description rdf:about=""/>
   </rdf:RDF>
</x:xmpmeta>
                                                                                                    
                                                                                                    
                                                                                                    
                                                                                                    
                                                                                                    
                                                                                                    
                                                                                                    
                                                                                                    
                                                                                                    
                                                                                                    
                                                                                                    
                                                                                                    
                                                                                                    
                                                                                                    
                                                                                                    
                                                                                                    
                                                                                                    
                                                                                                    
                                                                                                    
                                                                                                    
                           
<?xpacket end="w"?></metadata>
<defs>
    <style>
      .cls-1 {
        fill: #fff;
        fill-rule: evenodd;
      }
    </style>
  </defs>
  <path class="cls-1" d="M396.5,241.625a2.831,2.831,0,1,0,3.15,2.812,3,3,0,0,0-3.15-2.812h0Zm8.4-2.813h-2.521a0.931,0.931,0,0,1-.828-0.533l-0.652-1.745A0.933,0.933,0,0,0,400.07,236h-7.141a0.931,0.931,0,0,0-.828.534l-0.652,1.745a0.932,0.932,0,0,1-.829.533H388.1a2,2,0,0,0-2.1,1.875v8.438A2,2,0,0,0,388.1,251h16.8a2,2,0,0,0,2.1-1.875v-8.438a2,2,0,0,0-2.1-1.875h0Zm-8.4,10.313a4.718,4.718,0,1,1,5.25-4.688,4.993,4.993,0,0,1-5.25,4.688h0ZM404.165,242a0.66,0.66,0,1,1,.735-0.656,0.7,0.7,0,0,1-.735.656h0Zm0,0" transform="translate(-386 -236)"/>
</svg>
