<svg xmlns="http://www.w3.org/2000/svg" width="31" height="31" viewBox="0 0 31 31">
  <metadata><?xpacket begin="﻿" id="W5M0MpCehiHzreSzNTczkc9d"?>
<x:xmpmeta xmlns:x="adobe:ns:meta/" x:xmptk="Adobe XMP Core 5.6-c138 79.159824, 2016/09/14-01:09:01        ">
   <rdf:RDF xmlns:rdf="http://www.w3.org/1999/02/22-rdf-syntax-ns#">
      <rdf:Description rdf:about=""/>
   </rdf:RDF>
</x:xmpmeta>
                                                                                                    
                                                                                                    
                                                                                                    
                                                                                                    
                                                                                                    
                                                                                                    
                                                                                                    
                                                                                                    
                                                                                                    
                                                                                                    
                                                                                                    
                                                                                                    
                                                                                                    
                                                                                                    
                                                                                                    
                                                                                                    
                                                                                                    
                                                                                                    
                                                                                                    
                                                                                                    
                           
<?xpacket end="w"?></metadata>
<defs>
    <style>
      .cls-1 {
        fill: #0e365a;
        fill-rule: evenodd;
      }
    </style>
  </defs>
  <path class="cls-1" d="M15.5,0A15.5,15.5,0,1,0,31,15.5,15.5,15.5,0,0,0,15.5,0h0ZM7.311,23.441A0.744,0.744,0,0,1,6.566,22.7V8.3a0.744,0.744,0,0,1,.745-0.744H23.689a0.744,0.744,0,0,1,.744.744v7.965h-1.75V9.283H8.3V18.9H9.121L12.44,13.72l2.218,3.458,1.1,1.718h0.955l-1.579-2.462,1.029-1.6L18.773,18.9h1.051v3.633h2.421v0.912H7.311ZM21.417,12.508a1.541,1.541,0,1,1-1.54-1.54,1.541,1.541,0,0,1,1.54,1.54h0Zm3.6,8.949v2.42h-1.7v-2.42H20.9v-1.7h2.421V17.34h1.7v2.421h2.421v1.7H25.013Zm0,0"/>
</svg>
