<svg xmlns="http://www.w3.org/2000/svg" width="20" height="20" viewBox="0 0 20 20">
  <metadata><?xpacket begin="﻿" id="W5M0MpCehiHzreSzNTczkc9d"?>
<x:xmpmeta xmlns:x="adobe:ns:meta/" x:xmptk="Adobe XMP Core 5.6-c138 79.159824, 2016/09/14-01:09:01        ">
   <rdf:RDF xmlns:rdf="http://www.w3.org/1999/02/22-rdf-syntax-ns#">
      <rdf:Description rdf:about=""/>
   </rdf:RDF>
</x:xmpmeta>
                                                                                                    
                                                                                                    
                                                                                                    
                                                                                                    
                                                                                                    
                                                                                                    
                                                                                                    
                                                                                                    
                                                                                                    
                                                                                                    
                                                                                                    
                                                                                                    
                                                                                                    
                                                                                                    
                                                                                                    
                                                                                                    
                                                                                                    
                                                                                                    
                                                                                                    
                                                                                                    
                           
<?xpacket end="w"?></metadata>
<defs>
    <style>
      .cls-1 {
        fill: #181818;
        fill-rule: evenodd;
      }
    </style>
  </defs>
  <path class="cls-1" d="M18.644,1.266l0,17.467H1.356l0-17.467H18.644M18.809,0H1.191A1.2,1.2,0,0,0,0,1.213V18.786A1.2,1.2,0,0,0,1.191,20H18.809A1.2,1.2,0,0,0,20,18.786V1.213A1.2,1.2,0,0,0,18.809,0h0ZM2.96,10h0Zm0-4.549h0Zm2.494,8.162h0ZM8.871,4.5L7.016,4.246,6.188,2.681a0.45,0.45,0,0,0-.722,0L4.638,4.246,2.782,4.5a0.406,0.406,0,0,0-.327.257,0.36,0.36,0,0,0,.1.385L3.9,6.364,3.582,8.087a0.366,0.366,0,0,0,.162.365,0.414,0.414,0,0,0,.419.033l1.662-.815L7.484,8.482A0.428,0.428,0,0,0,7.91,8.455a0.364,0.364,0,0,0,.159-0.368L7.751,6.364,9.093,5.141A0.359,0.359,0,0,0,9.2,4.756,0.4,0.4,0,0,0,8.871,4.5h0Zm8.9,1.631H10.951V4.9h6.823V6.13Zm-2.2-.763h0Zm-6.7,7.575-1.855-.253L6.188,11.124a0.45,0.45,0,0,0-.722,0L4.638,12.689l-1.856.253a0.406,0.406,0,0,0-.327.257,0.36,0.36,0,0,0,.1.385L3.9,14.807,3.582,16.53a0.366,0.366,0,0,0,.162.364,0.414,0.414,0,0,0,.419.033l1.662-.815,1.659,0.812A0.428,0.428,0,0,0,7.91,16.9a0.364,0.364,0,0,0,.159-0.368L7.751,14.807l1.341-1.223A0.358,0.358,0,0,0,9.2,13.2a0.4,0.4,0,0,0-.328-0.257h0Zm8.9,1.631H10.951V13.339h6.823v1.235Z"/>
</svg>
