<svg xmlns="http://www.w3.org/2000/svg" width="31" height="31" viewBox="0 0 31 31">
  <metadata><?xpacket begin="﻿" id="W5M0MpCehiHzreSzNTczkc9d"?>
<x:xmpmeta xmlns:x="adobe:ns:meta/" x:xmptk="Adobe XMP Core 5.6-c138 79.159824, 2016/09/14-01:09:01        ">
   <rdf:RDF xmlns:rdf="http://www.w3.org/1999/02/22-rdf-syntax-ns#">
      <rdf:Description rdf:about=""/>
   </rdf:RDF>
</x:xmpmeta>
                                                                                                    
                                                                                                    
                                                                                                    
                                                                                                    
                                                                                                    
                                                                                                    
                                                                                                    
                                                                                                    
                                                                                                    
                                                                                                    
                                                                                                    
                                                                                                    
                                                                                                    
                                                                                                    
                                                                                                    
                                                                                                    
                                                                                                    
                                                                                                    
                                                                                                    
                                                                                                    
                           
<?xpacket end="w"?></metadata>
<defs>
    <style>
      .cls-1 {
        fill: #0e365a;
        fill-rule: evenodd;
      }
    </style>
  </defs>
  <path class="cls-1" d="M15.5,0A15.5,15.5,0,1,0,31,15.5,15.5,15.5,0,0,0,15.5,0h0ZM2.454,19.717a0.113,0.113,0,0,1-.108.1,0.111,0.111,0,0,1-.107-0.106l-0.2-1.469,0.2-1.494a0.111,0.111,0,0,1,.107-0.105,0.113,0.113,0,0,1,.108.105l0.234,1.5Zm1,0.894a0.119,0.119,0,0,1-.113.108,0.117,0.117,0,0,1-.112-0.108L2.965,18.246,3.23,15.829a0.112,0.112,0,0,1,.225,0l0.3,2.417Zm1.079,0.4a0.139,0.139,0,0,1-.135.132,0.137,0.137,0,0,1-.135-0.132L4.014,18.248,4.265,15.38A0.137,0.137,0,0,1,4.4,15.247a0.14,0.14,0,0,1,.135.133l0.285,2.868ZM5.624,21.1a0.159,0.159,0,0,1-.317,0L5.07,18.248,5.307,15.3a0.159,0.159,0,0,1,.317,0l0.269,2.947Zm1.1,0.023a0.18,0.18,0,0,1-.361,0L6.135,18.248,6.36,15.515a0.18,0.18,0,0,1,.361,0l0.254,2.734Zm1.107,0v0a0.2,0.2,0,0,1-.409,0L7.21,18.249,7.419,13.8a0.2,0.2,0,0,1,.409,0l0.237,4.449Zm1.1,0v0a0.227,0.227,0,0,1-.454,0l-0.2-2.855,0.2-5.465a0.227,0.227,0,0,1,.454,0l0.223,5.465Zm1.14-.045v0a0.249,0.249,0,0,1-.5,0L9.384,18.251s0.183-5.92.183-5.922a0.249,0.249,0,0,1,.5,0l0.207,5.922Zm1.133-.019a0.273,0.273,0,0,1-.545,0l-0.171-2.809,0.171-6.12a0.273,0.273,0,0,1,.545,0l0.19,6.12Zm1.14-.024v0a0.295,0.295,0,0,1-.59,0l-0.157-2.783,0.155-5.963a0.3,0.3,0,0,1,.591,0l0.176,5.963Zm1.151-.017v0a0.319,0.319,0,0,1-.638,0l-0.142-2.766,0.142-5.745a0.319,0.319,0,0,1,.638,0l0.16,5.747Zm1.172-.291L14.647,21a0.354,0.354,0,0,1-.1.241,0.343,0.343,0,0,1-.238.1,0.344,0.344,0,0,1-.341-0.327,0.034,0.034,0,0,1,0-.012s-0.13-2.744-.13-2.749l0.129-6.77,0-.065a0.343,0.343,0,0,1,.158-0.285,0.324,0.324,0,0,1,.184-0.055,0.328,0.328,0,0,1,.187.059,0.342,0.342,0,0,1,.153.282l0.144,6.838Zm1.14,0.235v0a0.365,0.365,0,0,1-.729,0L15,19.624l-0.074-1.37,0.149-7.421V10.8a0.371,0.371,0,0,1,.136-0.282,0.363,0.363,0,0,1,.415-0.031,0.38,0.38,0,0,1,.18.311l0.161,7.46Zm9.847,0.367H16.47a0.39,0.39,0,0,1-.358-0.381V10.44a0.378,0.378,0,0,1,.319-0.389,5.908,5.908,0,0,1,2.119-.4,5.844,5.844,0,0,1,5.818,5.324,3.3,3.3,0,1,1,1.28,6.349h0Zm0,0"/>
</svg>
