<svg xmlns="http://www.w3.org/2000/svg" width="26" height="22" viewBox="0 0 26 22">
  <metadata><?xpacket begin="﻿" id="W5M0MpCehiHzreSzNTczkc9d"?>
<x:xmpmeta xmlns:x="adobe:ns:meta/" x:xmptk="Adobe XMP Core 5.6-c138 79.159824, 2016/09/14-01:09:01        ">
   <rdf:RDF xmlns:rdf="http://www.w3.org/1999/02/22-rdf-syntax-ns#">
      <rdf:Description rdf:about=""/>
   </rdf:RDF>
</x:xmpmeta>
                                                                                                    
                                                                                                    
                                                                                                    
                                                                                                    
                                                                                                    
                                                                                                    
                                                                                                    
                                                                                                    
                                                                                                    
                                                                                                    
                                                                                                    
                                                                                                    
                                                                                                    
                                                                                                    
                                                                                                    
                                                                                                    
                                                                                                    
                                                                                                    
                                                                                                    
                                                                                                    
                           
<?xpacket end="w"?></metadata>
<defs>
    <style>
      .cls-1 {
        fill: #fff;
        fill-rule: evenodd;
      }
    </style>
  </defs>
  <path class="cls-1" d="M6.4,7.743H19.6a0.915,0.915,0,1,0,0-1.831H6.4a0.915,0.915,0,1,0,0,1.831h0Zm0,0,0,4.418H19.6a0.915,0.915,0,1,0,0-1.831H6.4a0.915,0.915,0,1,0,0,1.831h0Zm0,0M0.917,18.073H3.871v3.013a0.917,0.917,0,0,0,.515.825,0.875,0.875,0,0,0,.4.089,0.977,0.977,0,0,0,.559-0.179l4.922-3.726H25.082A0.906,0.906,0,0,0,26,17.181V0.915A0.907,0.907,0,0,0,25.082,0H0.917A0.906,0.906,0,0,0,0,.915V17.158a0.92,0.92,0,0,0,.918.915h0ZM1.834,1.829H24.143V16.243H9.957a0.98,0.98,0,0,0-.559.179L5.7,19.233V17.158a0.906,0.906,0,0,0-.916-0.915H1.834V1.829Zm0,0"/>
</svg>
