<svg xmlns="http://www.w3.org/2000/svg" xmlns:xlink="http://www.w3.org/1999/xlink" width="20" height="22" viewBox="0 0 20 22">
  <metadata><?xpacket begin="﻿" id="W5M0MpCehiHzreSzNTczkc9d"?>
<x:xmpmeta xmlns:x="adobe:ns:meta/" x:xmptk="Adobe XMP Core 5.6-c138 79.159824, 2016/09/14-01:09:01        ">
   <rdf:RDF xmlns:rdf="http://www.w3.org/1999/02/22-rdf-syntax-ns#">
      <rdf:Description rdf:about=""/>
   </rdf:RDF>
</x:xmpmeta>
                                                                                                    
                                                                                                    
                                                                                                    
                                                                                                    
                                                                                                    
                                                                                                    
                                                                                                    
                                                                                                    
                                                                                                    
                                                                                                    
                                                                                                    
                                                                                                    
                                                                                                    
                                                                                                    
                                                                                                    
                                                                                                    
                                                                                                    
                                                                                                    
                                                                                                    
                                                                                                    
                           
<?xpacket end="w"?></metadata>
<defs>
    <style>
      .cls-1 {
        fill: #181818;
        fill-rule: evenodd;
        filter: url(#filter);
      }
    </style>
    <filter id="filter" x="0" y="0" width="20" height="22" filterUnits="userSpaceOnUse">
      <feFlood result="flood" flood-color="#fff"/>
      <feComposite result="composite" operator="in" in2="SourceGraphic"/>
      <feBlend result="blend" in2="SourceGraphic"/>
    </filter>
  </defs>
  <path id="Shape_12_copy" data-name="Shape 12 copy" class="cls-1" d="M20,2.963V21.685a0.425,0.425,0,0,1-.264.314H0.264A0.425,0.425,0,0,1,0,21.685V2.963a0.406,0.406,0,0,1,.452-0.3c1.1,0.008,2.2,0,3.306,0H3.891V2.529c0-.7.006-1.406,0-2.109A0.381,0.381,0,0,1,4.132,0H5.494a0.356,0.356,0,0,1,.253.4c-0.01.71,0,1.421,0,2.132v0.13h8.408V2.524c0-.7.006-1.406,0-2.109A0.368,0.368,0,0,1,14.4,0h1.363A0.364,0.364,0,0,1,16.005.4c-0.01.71,0,1.421,0,2.132V2.668h3.558A0.368,0.368,0,0,1,20,2.963ZM3.891,3.729c-0.866,0-1.715,0-2.564,0a0.26,0.26,0,0,0-.255.181,0.705,0.705,0,0,0-.031.231q0,8.243,0,16.487a1.288,1.288,0,0,0,.006.145,0.28,0.28,0,0,0,.2.254,0.7,0.7,0,0,0,.206.02H18.563a0.323,0.323,0,0,0,.382-0.373q0-8.288,0-16.576a0.317,0.317,0,0,0-.36-0.372H16c0,0.431,0,.846,0,1.261a0.3,0.3,0,0,1-.3.345q-0.62.016-1.241,0a0.3,0.3,0,0,1-.3-0.344q0-.567,0-1.133V3.734H5.743V3.859q0,0.567,0,1.134a0.3,0.3,0,0,1-.308.342q-0.615.015-1.23,0a0.3,0.3,0,0,1-.314-0.349q0-.314,0-0.629V3.729ZM9.365,14.2L10.4,13.081q1.788-1.933,3.576-3.867A0.392,0.392,0,0,1,14.4,9.072a0.487,0.487,0,0,1,.187.111q0.476,0.449.944,0.907a0.414,0.414,0,0,1,.017.624q-2.376,2.571-4.753,5.139c-0.352.38-.716,0.749-1.076,1.121a0.4,0.4,0,0,1-.627,0Q6.961,14.891,4.837,12.8a0.418,0.418,0,0,1-.006-0.64q0.436-.452.873-0.9a0.411,0.411,0,0,1,.667,0l2.911,2.865Z"/>
</svg>
