<svg xmlns="http://www.w3.org/2000/svg" width="19" height="19" viewBox="0 0 19 19">
  <metadata><?xpacket begin="﻿" id="W5M0MpCehiHzreSzNTczkc9d"?>
<x:xmpmeta xmlns:x="adobe:ns:meta/" x:xmptk="Adobe XMP Core 5.6-c138 79.159824, 2016/09/14-01:09:01        ">
   <rdf:RDF xmlns:rdf="http://www.w3.org/1999/02/22-rdf-syntax-ns#">
      <rdf:Description rdf:about=""/>
   </rdf:RDF>
</x:xmpmeta>
                                                                                                    
                                                                                                    
                                                                                                    
                                                                                                    
                                                                                                    
                                                                                                    
                                                                                                    
                                                                                                    
                                                                                                    
                                                                                                    
                                                                                                    
                                                                                                    
                                                                                                    
                                                                                                    
                                                                                                    
                                                                                                    
                                                                                                    
                                                                                                    
                                                                                                    
                                                                                                    
                           
<?xpacket end="w"?></metadata>
<defs>
    <style>
      .cls-1 {
        fill: #fff;
        fill-rule: evenodd;
      }
    </style>
  </defs>
  <path class="cls-1" d="M18.448,15.932L14.1,11.58A8.369,8.369,0,0,1,11.581,14.1l4.352,4.352a1.778,1.778,0,0,0,2.515-2.515h0Zm0,0-4.221-8.82a7.113,7.113,0,1,0-7.113,7.113,7.114,7.114,0,0,0,7.113-7.113h0ZM7.113,12.448a5.335,5.335,0,1,1,5.335-5.335,5.341,5.341,0,0,1-5.335,5.335h0Zm0,0M2.964,7.113H4.149A2.967,2.967,0,0,1,7.113,4.149V2.963A4.154,4.154,0,0,0,2.964,7.113h0Zm0,0"/>
</svg>
