<svg xmlns="http://www.w3.org/2000/svg" width="31" height="31" viewBox="0 0 31 31">
  <metadata><?xpacket begin="﻿" id="W5M0MpCehiHzreSzNTczkc9d"?>
<x:xmpmeta xmlns:x="adobe:ns:meta/" x:xmptk="Adobe XMP Core 5.6-c138 79.159824, 2016/09/14-01:09:01        ">
   <rdf:RDF xmlns:rdf="http://www.w3.org/1999/02/22-rdf-syntax-ns#">
      <rdf:Description rdf:about=""/>
   </rdf:RDF>
</x:xmpmeta>
                                                                                                    
                                                                                                    
                                                                                                    
                                                                                                    
                                                                                                    
                                                                                                    
                                                                                                    
                                                                                                    
                                                                                                    
                                                                                                    
                                                                                                    
                                                                                                    
                                                                                                    
                                                                                                    
                                                                                                    
                                                                                                    
                                                                                                    
                                                                                                    
                                                                                                    
                                                                                                    
                           
<?xpacket end="w"?></metadata>
<defs>
    <style>
      .cls-1 {
        fill: #0e365a;
        fill-rule: evenodd;
      }
    </style>
  </defs>
  <path class="cls-1" d="M15.5,0A15.5,15.5,0,1,0,31,15.5,15.5,15.5,0,0,0,15.5,0ZM9.281,18.485V15.8h1.843V15.2H9.281V12.516h1.843V15.2h8.755V12.516h1.843V15.2H19.879v0.6h1.843v1.879H20.663v0.807H19.879V15.8H11.124v2.687H9.281Zm1.843,0.6v2.684H9.281V19.083h1.843Zm12.267,3.745v2.418H21.7V22.827H19.276v-1.7H21.7V18.711h1.7V21.13h2.421v1.7H23.391ZM20.663,20.1H19.879V19.083h0.784V20.1ZM8.7,23.378a1.81,1.81,0,0,1-1.793-1.824V9.508A1.812,1.812,0,0,1,8.7,7.683H22.3a1.811,1.811,0,0,1,1.792,1.825v8.169h-1.55V9.508A0.259,0.259,0,0,0,22.3,9.233h-0.58V11.92H19.879V9.233H11.124V11.92H9.281V9.233H8.7a0.26,0.26,0,0,0-.243.275V21.554a0.259,0.259,0,0,0,.243.274h9.542v1.55H8.7ZM21.722,13h0Z"/>
</svg>
