<svg xmlns="http://www.w3.org/2000/svg" width="20" height="17" viewBox="0 0 20 17">
  <metadata><?xpacket begin="﻿" id="W5M0MpCehiHzreSzNTczkc9d"?>
<x:xmpmeta xmlns:x="adobe:ns:meta/" x:xmptk="Adobe XMP Core 5.6-c138 79.159824, 2016/09/14-01:09:01        ">
   <rdf:RDF xmlns:rdf="http://www.w3.org/1999/02/22-rdf-syntax-ns#">
      <rdf:Description rdf:about=""/>
   </rdf:RDF>
</x:xmpmeta>
                                                                                                    
                                                                                                    
                                                                                                    
                                                                                                    
                                                                                                    
                                                                                                    
                                                                                                    
                                                                                                    
                                                                                                    
                                                                                                    
                                                                                                    
                                                                                                    
                                                                                                    
                                                                                                    
                                                                                                    
                                                                                                    
                                                                                                    
                                                                                                    
                                                                                                    
                                                                                                    
                           
<?xpacket end="w"?></metadata>
<defs>
    <style>
      .cls-1 {
        fill: #181818;
        fill-rule: evenodd;
      }
    </style>
  </defs>
  <path class="cls-1" d="M4.922,5.983H15.077a0.707,0.707,0,0,0,0-1.415H4.922a0.707,0.707,0,0,0,0,1.415h0Zm0,0,0,3.414H15.077a0.707,0.707,0,0,0,0-1.414H4.922a0.707,0.707,0,0,0,0,1.414h0Zm0,0M0.706,13.966H2.977v2.328a0.708,0.708,0,0,0,.4.637,0.669,0.669,0,0,0,.31.069,0.749,0.749,0,0,0,.43-0.138L7.9,13.982H19.294A0.7,0.7,0,0,0,20,13.276V0.707A0.7,0.7,0,0,0,19.294,0H0.706A0.7,0.7,0,0,0,0,.707V13.259a0.71,0.71,0,0,0,.706.707h0ZM1.411,1.414h17.16V12.551H7.659a0.752,0.752,0,0,0-.43.138L4.388,14.862v-1.6a0.7,0.7,0,0,0-.7-0.707H1.411V1.414Zm0,0"/>
</svg>
