<svg xmlns="http://www.w3.org/2000/svg" width="18" height="17" viewBox="0 0 18 17">
  <metadata><?xpacket begin="﻿" id="W5M0MpCehiHzreSzNTczkc9d"?>
<x:xmpmeta xmlns:x="adobe:ns:meta/" x:xmptk="Adobe XMP Core 5.6-c138 79.159824, 2016/09/14-01:09:01        ">
   <rdf:RDF xmlns:rdf="http://www.w3.org/1999/02/22-rdf-syntax-ns#">
      <rdf:Description rdf:about=""/>
   </rdf:RDF>
</x:xmpmeta>
                                                                                                    
                                                                                                    
                                                                                                    
                                                                                                    
                                                                                                    
                                                                                                    
                                                                                                    
                                                                                                    
                                                                                                    
                                                                                                    
                                                                                                    
                                                                                                    
                                                                                                    
                                                                                                    
                                                                                                    
                                                                                                    
                                                                                                    
                                                                                                    
                                                                                                    
                                                                                                    
                           
<?xpacket end="w"?></metadata>
<defs>
    <style>
      .cls-1 {
        fill: #fff;
        fill-rule: evenodd;
      }
    </style>
  </defs>
  <path class="cls-1" d="M0,14.163V3.191l2.519,0c0.373,0,.355.022,0.356-0.343,0-.047,0-0.094,0-0.142,0-.814,0-1.627,0-2.441,0-.25.008-0.25,0.262-0.259C3.222,0,3.306,0,3.39,0h7.953l6.657,0V14.163a0.138,0.138,0,0,0-.049.046,3.416,3.416,0,0,1-1.654,2.3A3.162,3.162,0,0,1,14.651,17Q9,17,3.348,17a2.517,2.517,0,0,1-.633-0.073,3.483,3.483,0,0,1-2.53-2.246C0.121,14.506.061,14.334,0,14.163ZM10.447,1.072q-3.024,0-6.047,0c-0.491,0-.434-0.049-0.434.443q0,6.1,0,12.209a2.787,2.787,0,0,1-.065.518,2.859,2.859,0,0,1-.484,1.153c-0.135.188-.11,0.234,0.123,0.316a1.344,1.344,0,0,0,.273.073,11.551,11.551,0,0,0,1.27.137c1.572,0.016,3.144.022,4.715,0,1.292-.016,2.584.07,3.876-0.06a3.6,3.6,0,0,0,3.238-3.682c0.013-3.6.006-7.2,0-10.793,0-.31,0-0.31-0.312-0.315-0.084,0-.168,0-0.252,0h-5.9ZM2.875,8.379q0-1.362,0-2.724c0-.389-0.005-0.778,0-1.167a0.186,0.186,0,0,0-.222-0.232c-0.456.009-.912,0.007-1.367,0a0.17,0.17,0,0,0-.2.212c0,0.059,0,.118,0,0.177,0,2.465-.007,4.929.006,7.394a6.207,6.207,0,0,0,.145,1.212,3.68,3.68,0,0,0,.628,1.281c0.042,0.063.11,0.149,0.191,0.038a3.528,3.528,0,0,0,.665-1.3,6.327,6.327,0,0,0,.148-1.247C2.887,10.808,2.875,9.593,2.875,8.379Zm12.25,0.865q0,1.415,0,2.829c0,0.321,0,.324-0.34.324q-2.194,0-4.388,0c-0.315,0-.32,0-0.32-0.308q0-2.882,0-5.765c0-.3,0-0.306.322-0.307q2.212,0,4.424,0c0.3,0,.3.005,0.3,0.29C15.126,7.287,15.125,8.265,15.125,9.244ZM10.281,3.186H14.6c0.072,0,.144,0,0.216,0,0.307,0.005.309,0.005,0.311,0.317s0,0.613,0,.919a0.159,0.159,0,0,1-.192.188c-0.084,0-.168,0-0.252,0H5.833c-0.084,0-.168,0-0.252,0a0.158,0.158,0,0,1-.186-0.193c0-.354,0-0.707,0-1.061a0.145,0.145,0,0,1,.173-0.169c0.1,0,.192,0,0.288,0h4.424ZM7.216,6.017c0.515,0,1.03.006,1.545,0a0.2,0.2,0,0,1,.245.245c-0.022.266-.034,0.532-0.051,0.8-0.249.01-.5,0.028-0.747,0.029q-1.257.005-2.515,0C5.4,7.087,5.4,7.082,5.4,6.793c0-.165,0-0.33,0-0.494C5.4,6.025,5.4,6.021,5.671,6.018,6.186,6.015,6.7,6.017,7.216,6.017ZM7.183,8.858c-0.515,0-1.03-.006-1.545,0a0.2,0.2,0,0,1-.244-0.246c0.022-.266.034-0.532,0.051-0.8,0.249-.01.5-0.028,0.747-0.029q1.257-.005,2.515,0C9,7.789,9,7.794,9,8.083c0,0.165,0,.33,0,0.495C9,8.85,9,8.855,8.728,8.857,8.213,8.861,7.7,8.858,7.183,8.858ZM7.2,10.628c-0.515,0-1.03,0-1.545,0-0.251,0-.254-0.008-0.259-0.259,0-.2,0-0.4,0-0.6A0.173,0.173,0,0,1,5.6,9.555q1.6,0.006,3.2,0a0.172,0.172,0,0,1,.207.209c-0.012.269-.018,0.538-0.026,0.808-0.258.019-.515,0.046-0.773,0.053C7.871,10.635,7.536,10.628,7.2,10.628Zm0.019,0.7c0.5,0,1.006,0,1.509,0,0.265,0,.273.007,0.274,0.245,0,0.257-.016.514-0.024,0.772C8.72,12.362,8.462,12.393,8.2,12.4c-0.826.007-1.653,0-2.479,0-0.326,0-.327,0-0.33-0.334,0-.165.008-0.33,0-0.494a0.2,0.2,0,0,1,.246-0.245C6.166,11.333,6.693,11.327,7.22,11.327Z"/>
</svg>
