<svg xmlns="http://www.w3.org/2000/svg" width="19" height="21" viewBox="0 0 19 21">
  <metadata><?xpacket begin="﻿" id="W5M0MpCehiHzreSzNTczkc9d"?>
<x:xmpmeta xmlns:x="adobe:ns:meta/" x:xmptk="Adobe XMP Core 5.6-c140 79.160451, 2017/05/06-01:08:21        ">
   <rdf:RDF xmlns:rdf="http://www.w3.org/1999/02/22-rdf-syntax-ns#">
      <rdf:Description rdf:about=""/>
   </rdf:RDF>
</x:xmpmeta>
                                                                                                    
                                                                                                    
                                                                                                    
                                                                                                    
                                                                                                    
                                                                                                    
                                                                                                    
                                                                                                    
                                                                                                    
                                                                                                    
                                                                                                    
                                                                                                    
                                                                                                    
                                                                                                    
                                                                                                    
                                                                                                    
                                                                                                    
                                                                                                    
                                                                                                    
                                                                                                    
                           
<?xpacket end="w"?></metadata>
<defs>
    <style>
      .cls-1 {
        fill-rule: evenodd;
      }
    </style>
  </defs>
  <path id="Forma_1" data-name="Forma 1" class="cls-1" d="M15.428,8.986a2.37,2.37,0,0,1-2.355-2.38A6.579,6.579,0,0,0,6.536,0,6.579,6.579,0,0,0,0,6.606V18.588a0.612,0.612,0,0,0,.609.615H3.557v1.182a0.609,0.609,0,1,0,1.217,0V19.2h9.452v1.182a0.609,0.609,0,1,0,1.217,0V19.2h2.948A0.612,0.612,0,0,0,19,18.588V12.6A3.6,3.6,0,0,0,15.428,8.986ZM3.556,17.972H1.217V14.41H3.354v1.182a0.82,0.82,0,0,0,.2.541v1.839h0Zm3.557,0H4.774V16.133a0.821,0.821,0,0,0,.2-0.541V14.41H6.91v1.182a0.82,0.82,0,0,0,.2.541v1.839Zm3.557,0H8.331V16.133a0.821,0.821,0,0,0,.2-0.541V14.41h1.933v1.182a0.82,0.82,0,0,0,.2.541v1.839Zm3.556,0H11.887V16.133a0.82,0.82,0,0,0,.2-0.541V14.41h1.933v1.182a0.821,0.821,0,0,0,.2.541v1.839h0ZM1.217,13.18V6.606A5.353,5.353,0,0,1,6.536,1.231a5.353,5.353,0,0,1,5.319,5.376,3.6,3.6,0,0,0,3.573,3.611,2.37,2.37,0,0,1,2.355,2.38V13.18H1.217Zm16.565,4.793H15.444V16.133a0.82,0.82,0,0,0,.2-0.541V14.41h2.136v3.562h0Z"/>
</svg>
