<svg xmlns="http://www.w3.org/2000/svg" width="16" height="22" viewBox="0 0 16 22">
  <metadata><?xpacket begin="﻿" id="W5M0MpCehiHzreSzNTczkc9d"?>
<x:xmpmeta xmlns:x="adobe:ns:meta/" x:xmptk="Adobe XMP Core 5.6-c138 79.159824, 2016/09/14-01:09:01        ">
   <rdf:RDF xmlns:rdf="http://www.w3.org/1999/02/22-rdf-syntax-ns#">
      <rdf:Description rdf:about=""/>
   </rdf:RDF>
</x:xmpmeta>
                                                                                                    
                                                                                                    
                                                                                                    
                                                                                                    
                                                                                                    
                                                                                                    
                                                                                                    
                                                                                                    
                                                                                                    
                                                                                                    
                                                                                                    
                                                                                                    
                                                                                                    
                                                                                                    
                                                                                                    
                                                                                                    
                                                                                                    
                                                                                                    
                                                                                                    
                                                                                                    
                           
<?xpacket end="w"?></metadata>
<defs>
    <style>
      .cls-1 {
        fill: #222;
        fill-rule: evenodd;
      }
    </style>
  </defs>
  <path id="Shape_6_copy_4" data-name="Shape 6 copy 4" class="cls-1" d="M0,20.621a1.37,1.37,0,0,0,.82,1.268A1.27,1.27,0,0,0,1.334,22a1.325,1.325,0,0,0,.943-0.4L8,15.7l5.72,5.9a1.321,1.321,0,0,0,.945.4,1.233,1.233,0,0,0,.507-0.108A1.366,1.366,0,0,0,16,20.621V4.125H0v16.5ZM14.665,0.005H1.334A1.357,1.357,0,0,0,0,1.382V2.758H16V1.382A1.358,1.358,0,0,0,14.665.005h0Z"/>
</svg>
