<svg xmlns="http://www.w3.org/2000/svg" xmlns:xlink="http://www.w3.org/1999/xlink" width="20" height="24" viewBox="0 0 20 24">
  <metadata><?xpacket begin="﻿" id="W5M0MpCehiHzreSzNTczkc9d"?>
<x:xmpmeta xmlns:x="adobe:ns:meta/" x:xmptk="Adobe XMP Core 5.6-c138 79.159824, 2016/09/14-01:09:01        ">
   <rdf:RDF xmlns:rdf="http://www.w3.org/1999/02/22-rdf-syntax-ns#">
      <rdf:Description rdf:about=""/>
   </rdf:RDF>
</x:xmpmeta>
                                                                                                    
                                                                                                    
                                                                                                    
                                                                                                    
                                                                                                    
                                                                                                    
                                                                                                    
                                                                                                    
                                                                                                    
                                                                                                    
                                                                                                    
                                                                                                    
                                                                                                    
                                                                                                    
                                                                                                    
                                                                                                    
                                                                                                    
                                                                                                    
                                                                                                    
                                                                                                    
                           
<?xpacket end="w"?></metadata>
<defs>
    <style>
      .cls-1 {
        fill-rule: evenodd;
        filter: url(#filter);
      }
    </style>
    <filter id="filter" x="0" y="0.031" width="20" height="23.969" filterUnits="userSpaceOnUse">
      <feFlood result="flood" flood-color="#fff"/>
      <feComposite result="composite" operator="in" in2="SourceGraphic"/>
      <feBlend result="blend" in2="SourceGraphic"/>
    </filter>
  </defs>
  <path class="cls-1" d="M19.149,0.364A1.959,1.959,0,0,0,17.324.125L7.3,3.887A2.032,2.032,0,0,0,6,5.788v11.5a2.84,2.84,0,0,0-2.111-.46,4.524,4.524,0,0,0-2.529,1.347A4.666,4.666,0,0,0,.036,20.748a2.875,2.875,0,0,0,.723,2.479A2.646,2.646,0,0,0,2.691,24a3.471,3.471,0,0,0,.5-0.037,4.524,4.524,0,0,0,2.529-1.347,4.666,4.666,0,0,0,1.322-2.577,3.7,3.7,0,0,0,.035-0.432c0-.008,0-9.968,0-9.968L18.919,5.2v7.239a2.84,2.84,0,0,0-2.111-.46,4.524,4.524,0,0,0-2.529,1.347A4.667,4.667,0,0,0,12.957,15.9a2.875,2.875,0,0,0,.723,2.479,2.646,2.646,0,0,0,1.932.773,3.459,3.459,0,0,0,.5-0.037,4.524,4.524,0,0,0,2.529-1.347,4.667,4.667,0,0,0,1.322-2.577C19.985,15.044,20,2.026,20,2.026A2.039,2.039,0,0,0,19.149.364ZM6,19.546a2.525,2.525,0,0,1-.025.338,3.553,3.553,0,0,1-1.016,1.953,3.447,3.447,0,0,1-1.918,1.036,1.715,1.715,0,0,1-1.516-.425A1.792,1.792,0,0,1,1.106,20.9,3.554,3.554,0,0,1,2.122,18.95,3.449,3.449,0,0,1,4.04,17.914a2.4,2.4,0,0,1,.343-0.026,1.6,1.6,0,0,1,1.173.45A1.664,1.664,0,0,1,6,19.528v0.017H6ZM18.919,4.022L7.079,8.465V5.788A0.927,0.927,0,0,1,7.673,4.92L17.7,1.158a0.882,0.882,0,0,1,.833.109,0.918,0.918,0,0,1,.388.758v2Zm0,10.674a2.546,2.546,0,0,1-.025.339,3.554,3.554,0,0,1-1.016,1.954,3.446,3.446,0,0,1-1.918,1.036,1.715,1.715,0,0,1-1.516-.424,1.793,1.793,0,0,1-.417-1.545A3.554,3.554,0,0,1,15.043,14.1a3.446,3.446,0,0,1,1.918-1.035A2.383,2.383,0,0,1,17.3,13.04a1.6,1.6,0,0,1,1.173.45,1.665,1.665,0,0,1,.442,1.191V14.7h0Z"/>
</svg>
