<svg xmlns="http://www.w3.org/2000/svg" width="19" height="21" viewBox="0 0 19 21">
  <metadata><?xpacket begin="﻿" id="W5M0MpCehiHzreSzNTczkc9d"?>
<x:xmpmeta xmlns:x="adobe:ns:meta/" x:xmptk="Adobe XMP Core 5.6-c138 79.159824, 2016/09/14-01:09:01        ">
   <rdf:RDF xmlns:rdf="http://www.w3.org/1999/02/22-rdf-syntax-ns#">
      <rdf:Description rdf:about=""/>
   </rdf:RDF>
</x:xmpmeta>
                                                                                                    
                                                                                                    
                                                                                                    
                                                                                                    
                                                                                                    
                                                                                                    
                                                                                                    
                                                                                                    
                                                                                                    
                                                                                                    
                                                                                                    
                                                                                                    
                                                                                                    
                                                                                                    
                                                                                                    
                                                                                                    
                                                                                                    
                                                                                                    
                                                                                                    
                                                                                                    
                           
<?xpacket end="w"?></metadata>
<defs>
    <style>
      .cls-1 {
        fill: #181818;
        fill-rule: evenodd;
      }
    </style>
  </defs>
  <path class="cls-1" d="M18.566,3.445A1.385,1.385,0,0,0,17.539,3H16.077V1.875A1.83,1.83,0,0,0,15.541.551,1.74,1.74,0,0,0,14.25,0H13.519a1.739,1.739,0,0,0-1.29.551,1.831,1.831,0,0,0-.537,1.325V3H7.308V1.875A1.83,1.83,0,0,0,6.771.551,1.739,1.739,0,0,0,5.48,0H4.75A1.739,1.739,0,0,0,3.46.551a1.83,1.83,0,0,0-.536,1.325V3H1.462a1.386,1.386,0,0,0-1.028.445A1.459,1.459,0,0,0,0,4.5v15a1.459,1.459,0,0,0,.434,1.054A1.387,1.387,0,0,0,1.462,21H17.538a1.386,1.386,0,0,0,1.028-.445A1.459,1.459,0,0,0,19,19.5V4.5a1.458,1.458,0,0,0-.434-1.055h0ZM4.75,19.5H1.462V16.125H4.75V19.5Zm0-4.125H1.462v-3.75H4.75v3.75Zm0-4.5H1.462V7.5H4.75v3.375ZM4.493,5.514A0.364,0.364,0,0,1,4.385,5.25V1.875a0.362,0.362,0,0,1,.108-0.263A0.347,0.347,0,0,1,4.75,1.5H5.48a0.347,0.347,0,0,1,.257.112,0.365,0.365,0,0,1,.108.263V5.25a0.367,0.367,0,0,1-.108.264,0.347,0.347,0,0,1-.257.111H4.75a0.347,0.347,0,0,1-.257-0.111h0ZM9.135,19.5H5.48V16.125H9.135V19.5Zm0-4.125H5.48v-3.75H9.135v3.75Zm0-4.5H5.48V7.5H9.135v3.375ZM13.519,19.5H9.865V16.125h3.654V19.5Zm0-4.125H9.865v-3.75h3.654v3.75Zm0-4.5H9.865V7.5h3.654v3.375ZM13.262,5.514a0.364,0.364,0,0,1-.108-0.264V1.875a0.362,0.362,0,0,1,.108-0.263A0.345,0.345,0,0,1,13.519,1.5H14.25a0.345,0.345,0,0,1,.257.112,0.363,0.363,0,0,1,.109.263V5.25a0.365,0.365,0,0,1-.109.264,0.346,0.346,0,0,1-.257.111H13.519a0.345,0.345,0,0,1-.257-0.111h0ZM17.538,19.5H14.25V16.125h3.288V19.5Zm0-4.125H14.25v-3.75h3.288v3.75Zm0-4.5H14.25V7.5h3.288v3.375Zm0,0"/>
</svg>
