<svg xmlns="http://www.w3.org/2000/svg" width="31" height="31" viewBox="0 0 31 31">
  <metadata><?xpacket begin="﻿" id="W5M0MpCehiHzreSzNTczkc9d"?>
<x:xmpmeta xmlns:x="adobe:ns:meta/" x:xmptk="Adobe XMP Core 5.6-c138 79.159824, 2016/09/14-01:09:01        ">
   <rdf:RDF xmlns:rdf="http://www.w3.org/1999/02/22-rdf-syntax-ns#">
      <rdf:Description rdf:about=""/>
   </rdf:RDF>
</x:xmpmeta>
                                                                                                    
                                                                                                    
                                                                                                    
                                                                                                    
                                                                                                    
                                                                                                    
                                                                                                    
                                                                                                    
                                                                                                    
                                                                                                    
                                                                                                    
                                                                                                    
                                                                                                    
                                                                                                    
                                                                                                    
                                                                                                    
                                                                                                    
                                                                                                    
                                                                                                    
                                                                                                    
                           
<?xpacket end="w"?></metadata>
<defs>
    <style>
      .cls-1 {
        fill: #0e365a;
        fill-rule: evenodd;
      }
    </style>
  </defs>
  <path class="cls-1" d="M15.5,0A15.5,15.5,0,1,0,31,15.5,15.5,15.5,0,0,0,15.5,0Zm8.13,22.4v2.419h-1.7V22.4H19.513v-1.7h2.421V18.286h1.7v2.421H26.05v1.7H23.63Zm-14.287.935a1.136,1.136,0,0,1-1.12-1.119v-11.2A1.136,1.136,0,0,1,9.343,9.9h1.12V9.063a1.4,1.4,0,0,1,1.4-1.4h0.561a1.4,1.4,0,0,1,1.4,1.4V9.9h3.36V9.063a1.4,1.4,0,0,1,1.4-1.4H19.14a1.4,1.4,0,0,1,1.4,1.4V9.9h1.12a1.136,1.136,0,0,1,1.12,1.12v6.23h-1.12V16.34H19.14v2.8H20.9v0.534H18.48V19.7h-2.7v2.519h2.7v1.12H9.343Zm9.8-7.557h2.519v-2.52H19.14v2.52Zm-0.561-3.92H19.14a0.282,0.282,0,0,0,.279-0.279V9.063a0.27,0.27,0,0,0-.083-0.2,0.267,0.267,0,0,0-.2-0.083H18.579a0.266,0.266,0,0,0-.2.083,0.27,0.27,0,0,0-.083.2v2.519A0.282,0.282,0,0,0,18.579,11.861Zm0,4.48h-2.8v2.8h2.8v-2.8Zm0-3.079h-2.8v2.52h2.8v-2.52Zm-6.157,8.957h2.8V19.7h-2.8v2.519Zm0-3.078h2.8v-2.8h-2.8v2.8Zm0-3.358h2.8v-2.52h-2.8v2.52Zm0.2-4a0.267,0.267,0,0,0,.083-0.2V9.063a0.27,0.27,0,0,0-.083-0.2,0.267,0.267,0,0,0-.2-0.083H11.861a0.282,0.282,0,0,0-.279.28v2.519a0.282,0.282,0,0,0,.279.279h0.561A0.266,0.266,0,0,0,12.618,11.778ZM9.343,22.218h2.519V19.7H9.343v2.519Zm0-3.078h2.519v-2.8H9.343v2.8Zm0-3.358h2.519v-2.52H9.343v2.52Zm12.316,1.471v1.887H20.9v0.534H18.48V19.7h0.1v2.519h-0.1v1.12h3.179a1.068,1.068,0,0,0,.275-0.034V22.4H19.513V22.218H19.14V19.7h2.519v1.008h0.275V18.286h0.845V17.252h-1.12Zm2.488,2.937V17.769H21.417V20.19H19v2.729h2.421v2.419h2.729V22.919h2.421V20.19H24.146Zm1.9,2.213H23.63v2.419h-1.7V22.4H19.513v-1.7h2.421V18.286h1.7v2.421H26.05v1.7Zm-1.387-2.729V17.252H20.9v2.421H18.48v3.763H20.9v2.419h3.763V23.436h2.421V19.673H24.663ZM26.05,22.4H23.63v2.419h-1.7V22.4H19.513v-1.7h2.421V18.286h1.7v2.421H26.05v1.7Z"/>
</svg>
